<svg id="Capa_2" data-name="Capa 2" xmlns="http://www.w3.org/2000/svg" viewBox="0 0 160 160"><defs><style>.cls-1{fill:#8b956d;}.cls-2{fill:#1f1f1f;}</style></defs><polygon class="cls-1" points="135 75 135 70 125 70 125 65 115 65 115 60 105 60 105 50 105 40 105 30 105 20 95 20 95 15 85 15 85 20 75 20 75 25 65 25 65 30 55 30 55 40 55 50 55 60 55 70 55 80 55 90 55 95 50 95 50 90 45 90 45 85 40 85 40 80 35 80 30 80 25 80 25 90 20 90 20 100 20 110 25 110 25 115 30 115 30 120 35 120 35 130 40 130 40 140 45 140 45 150 50 150 50 160 60 160 60 150 55 150 55 140 50 140 50 130 45 130 45 120 40 120 40 110 35 110 35 105 30 105 30 100 30 90 35 90 35 95 40 95 40 100 45 100 45 105 50 105 50 110 55 110 60 110 65 110 65 100 65 90 65 80 65 70 65 60 65 50 65 40 65 35 75 35 75 40 75 50 75 60 75 70 75 80 75 90 85 90 85 80 85 70 85 60 85 50 85 40 85 30 85 25 95 25 95 30 95 40 95 50 95 60 95 70 95 80 95 90 105 90 105 80 105 70 115 70 115 75 115 85 115 95 125 95 125 85 125 80 135 80 135 85 135 95 135 105 135 115 135 125 130 125 130 135 130 145 130 155 140 155 140 145 140 135 140 125 145 125 145 115 145 105 145 95 145 85 145 75 135 75"/><polygon class="cls-2" points="130 70 130 65 120 65 120 60 110 60 110 55 100 55 100 45 100 35 100 25 100 15 90 15 90 10 80 10 80 15 70 15 70 20 60 20 60 25 50 25 50 35 50 45 50 55 50 65 50 75 50 85 50 90 45 90 45 85 40 85 40 80 35 80 35 75 30 75 25 75 20 75 20 85 15 85 15 95 15 105 20 105 20 110 25 110 25 115 30 115 30 125 35 125 35 135 40 135 40 145 45 145 45 155 55 155 55 145 50 145 50 135 45 135 45 125 40 125 40 115 35 115 35 105 30 105 30 100 25 100 25 95 25 85 30 85 30 90 35 90 35 95 40 95 40 100 45 100 45 105 50 105 55 105 60 105 60 95 60 85 60 75 60 65 60 55 60 45 60 35 60 30 70 30 70 35 70 45 70 55 70 65 70 75 70 85 80 85 80 75 80 65 80 55 80 45 80 35 80 25 80 20 90 20 90 25 90 35 90 45 90 55 90 65 90 75 90 85 100 85 100 75 100 65 110 65 110 70 110 80 110 90 120 90 120 80 120 75 130 75 130 80 130 90 130 100 130 110 130 120 125 120 125 130 125 140 125 150 135 150 135 140 135 130 135 120 140 120 140 110 140 100 140 90 140 80 140 70 130 70"/></svg>